<?xml version="1.0" standalone="no"?>
<!DOCTYPE svg PUBLIC "-//W3C//DTD SVG 20010904//EN"
 "http://www.w3.org/TR/2001/REC-SVG-20010904/DTD/svg10.dtd">
<svg version="1.0" xmlns="http://www.w3.org/2000/svg"
 width="300.000000pt" height="300.000000pt" viewBox="0 0 300.000000 300.000000"
 preserveAspectRatio="xMidYMid meet">

<g transform="translate(0.000000,300.000000) scale(0.100000,-0.100000)"
fill="#000000" stroke="none">
<path d="M1345 2673 c-71 -9 -245 -58 -310 -86 -398 -176 -655 -512 -720 -939
-23 -150 -16 -288 24 -458 39 -168 143 -363 269 -502 177 -196 401 -325 662
-379 96 -20 385 -18 475 3 315 76 548 229 729 478 93 128 185 337 188 427 2
63 -68 104 -119 68 -13 -9 -32 -50 -53 -112 -108 -329 -346 -569 -670 -677
-41 -13 -130 -33 -198 -42 -117 -17 -127 -17 -243 -1 -148 22 -228 46 -344
103 -369 182 -596 574 -572 987 28 477 375 873 845 963 41 8 127 14 192 14
295 0 533 -101 745 -315 176 -178 275 -403 292 -665 6 -76 9 -88 35 -113 23
-23 34 -28 56 -22 67 16 81 63 63 205 -38 294 -149 521 -350 720 -191 189
-408 299 -671 340 -62 9 -261 11 -325 3z"/>
<path d="M1200 2053 c-71 -36 -70 -30 -70 -573 0 -469 1 -486 20 -518 26 -42
81 -66 134 -59 22 3 70 21 106 40 80 42 553 325 631 378 161 109 159 221 -6
330 -120 80 -475 293 -639 383 -65 36 -130 43 -176 19z m453 -365 c304 -182
317 -190 317 -204 0 -7 -26 -27 -57 -46 -601 -364 -619 -374 -627 -352 -8 21
-8 799 1 807 7 8 45 -13 366 -205z"/>
</g>
</svg>
