<?xml version="1.0" standalone="no"?>
<!DOCTYPE svg PUBLIC "-//W3C//DTD SVG 20010904//EN"
 "http://www.w3.org/TR/2001/REC-SVG-20010904/DTD/svg10.dtd">
<svg version="1.0" xmlns="http://www.w3.org/2000/svg"
 width="800.000000pt" height="150.000000pt" viewBox="0 0 800.000000 150.000000"
 preserveAspectRatio="xMidYMid meet">

<g transform="translate(0.000000,150.000000) scale(0.100000,-0.100000)"
fill="#000000" stroke="none">
<path d="M2884 1216 c-84 -37 -86 -139 -4 -181 80 -42 180 13 180 98 0 35 -36
75 -78 87 -47 13 -60 12 -98 -4z"/>
<path d="M2517 1153 c-4 -3 -7 -60 -7 -125 0 -65 -1 -118 -2 -118 -2 0 -25 11
-52 25 -127 64 -297 1 -360 -135 -32 -70 -29 -207 6 -275 53 -101 128 -145
248 -145 62 0 83 5 119 25 23 14 45 25 46 25 2 0 5 -10 7 -23 3 -21 7 -22 93
-22 l90 0 3 388 2 387 -93 0 c-52 0 -97 -3 -100 -7z m-45 -382 c32 -28 33 -32
33 -105 0 -68 -3 -78 -26 -102 -18 -18 -41 -28 -71 -31 -91 -10 -144 51 -136
155 4 47 10 60 37 84 25 23 41 28 81 28 41 0 56 -5 82 -29z"/>
<path d="M4932 773 l3 -388 95 0 95 0 3 388 2 387 -100 0 -100 0 2 -387z"/>
<path d="M430 1109 c0 -20 177 -340 273 -494 l93 -150 49 0 49 0 94 155 c89
147 116 194 213 378 23 42 46 81 50 86 25 27 8 36 -69 36 l-77 0 -60 -101
c-33 -55 -67 -113 -75 -127 -88 -151 -113 -192 -120 -192 -4 0 -17 15 -28 33
-130 216 -217 355 -230 370 -12 13 -31 17 -89 17 -47 0 -73 -4 -73 -11z"/>
<path d="M4167 1113 c-4 -3 -7 -39 -7 -80 l0 -73 179 0 c101 0 191 -5 209 -11
54 -19 82 -86 59 -141 -26 -61 -32 -63 -246 -68 l-196 -5 0 -175 0 -175 95 0
95 0 5 95 5 95 125 5 c111 5 131 8 182 33 102 50 148 126 148 243 -1 125 -76
214 -215 250 -52 14 -425 20 -438 7z"/>
<path d="M1585 942 c-98 -34 -163 -101 -191 -200 -40 -136 27 -272 163 -334
55 -25 74 -28 161 -28 91 0 104 3 161 31 34 17 65 38 68 46 6 15 -72 103 -92
103 -6 0 -28 -9 -50 -20 -22 -11 -53 -20 -71 -20 -67 0 -144 43 -144 82 0 17
13 18 205 18 l205 0 0 53 c0 204 -210 340 -415 269z m175 -137 c31 -16 50 -43
50 -69 0 -14 -17 -16 -115 -16 -132 0 -140 7 -81 66 28 28 42 34 75 34 23 0
55 -7 71 -15z"/>
<path d="M3295 946 c-58 -15 -125 -42 -125 -51 0 -4 12 -33 28 -66 19 -42 32
-58 42 -55 8 3 33 12 55 20 58 22 133 20 173 -4 17 -11 32 -24 32 -29 0 -5 3
-16 6 -25 5 -14 -5 -16 -69 -16 -146 0 -239 -34 -276 -100 -43 -77 -11 -176
69 -217 80 -40 218 -29 259 21 19 23 29 20 33 -11 3 -28 3 -28 90 -31 87 -3
87 -3 94 23 4 15 4 104 2 198 -5 195 -17 237 -81 294 -66 58 -211 79 -332 49z
m211 -341 c9 -23 -4 -62 -28 -85 -32 -29 -111 -28 -132 2 -24 34 -19 56 17 78
40 25 135 28 143 5z"/>
<path d="M5385 946 c-62 -16 -125 -42 -125 -53 1 -4 13 -33 28 -63 29 -59 33
-60 97 -36 48 18 128 20 158 5 26 -13 56 -49 57 -66 0 -9 -21 -13 -75 -13
-208 0 -312 -72 -290 -201 8 -49 54 -104 103 -124 19 -9 66 -15 106 -15 63 0
78 4 119 30 26 17 50 30 52 30 3 0 5 -14 5 -30 l0 -31 88 3 87 3 3 160 c3 175
-8 257 -42 308 -26 39 -87 80 -142 95 -52 15 -164 14 -229 -2z m215 -360 c0
-51 -40 -86 -98 -86 -51 0 -82 21 -82 55 0 43 38 62 128 64 l52 1 0 -34z"/>
<path d="M6723 941 c-136 -47 -218 -181 -193 -318 28 -158 148 -245 334 -244
77 0 97 4 153 30 35 17 66 37 70 46 4 12 -9 31 -40 63 l-45 45 -51 -21 c-81
-36 -168 -23 -205 29 -33 48 -30 49 189 49 l205 0 0 53 c0 206 -209 340 -417
268z m177 -136 c31 -16 50 -43 50 -69 0 -14 -17 -16 -115 -16 -132 0 -140 7
-81 66 28 28 42 34 75 34 23 0 55 -7 71 -15z"/>
<path d="M7527 945 c-21 -8 -50 -24 -65 -36 l-27 -21 -3 31 -3 32 -92 -3 -92
-3 0 -280 0 -280 95 0 95 0 5 160 c3 88 9 167 14 175 27 45 50 59 108 66 l59
7 -3 81 c-3 78 -4 81 -28 83 -14 1 -42 -4 -63 -12z"/>
<path d="M2842 668 l3 -283 95 0 95 0 3 283 2 282 -100 0 -100 0 2 -282z"/>
<path d="M5856 928 c3 -13 15 -41 25 -63 26 -58 168 -392 190 -448 l19 -48
-25 -24 c-28 -29 -71 -33 -115 -10 l-30 15 -32 -66 c-32 -64 -33 -66 -13 -80
53 -39 197 -44 264 -9 75 38 98 76 211 350 34 83 84 202 111 267 27 64 49 121
49 127 0 7 -31 11 -89 11 l-88 0 -60 -147 c-33 -82 -64 -158 -67 -170 -4 -13
-11 -23 -16 -23 -4 0 -36 71 -71 158 -34 86 -66 163 -72 170 -6 8 -40 12 -104
12 -93 0 -94 0 -87 -22z"/>
<path d="M1176 654 c-84 -151 -87 -159 -84 -213 l3 -56 90 0 90 0 3 213 c1
116 -2 212 -6 212 -5 0 -48 -70 -96 -156z"/>
<path d="M422 593 l3 -208 90 0 90 0 0 50 c-1 45 -11 69 -89 208 -48 86 -90
157 -92 157 -2 0 -3 -93 -2 -207z"/>
</g>
</svg>
